<?xml version="1.0" encoding="utf-8"?>
<!-- Generator: Adobe Illustrator 21.0.0, SVG Export Plug-In . SVG Version: 6.00 Build 0)  -->
<svg version="1.1" id="圖層_1" xmlns="http://www.w3.org/2000/svg" xmlns:xlink="http://www.w3.org/1999/xlink" x="0px" y="0px"
	 viewBox="0 0 58 50" style="enable-background:new 0 0 58 50;" xml:space="preserve">
<style type="text/css">
	.eclise,.eclise20{fill-rule:evenodd;clip-rule:evenodd;fill:none;stroke:#BB0A30;stroke-miterlimit:10;}
</style>
<path class="eclise20" d="M42.4,10.5c7.8,0,14.1,6.3,14.1,14c0,7.7-6.3,14-14.1,14c-7.8,0-14.1-6.3-14.1-14
	C28.4,16.8,34.7,10.5,42.4,10.5z"/>
<path class="eclise20" d="M39.6,10.5c7.8,0,14.1,6.3,14.1,14c0,7.7-6.3,14-14.1,14c-7.8,0-14.1-6.3-14.1-14
	C25.5,16.8,31.8,10.5,39.6,10.5z"/>
<path class="eclise20" d="M41.3,10.5c7.8,0,14.1,6.3,14.1,14c0,7.7-6.3,14-14.1,14c-7.8,0-14.1-6.3-14.1-14
	C27.2,16.8,33.5,10.5,41.3,10.5z"/>
<path class="eclise20" d="M38.3,5.5c10.6,0,19.2,8.7,19.2,19.5c0,10.8-8.6,19.5-19.2,19.5c-10.6,0-19.2-8.7-19.2-19.5
	C19.1,14.2,27.7,5.5,38.3,5.5z"/>
<path class="eclise20" d="M34.4,5.5C45,5.5,53.6,14.2,53.6,25c0,10.8-8.6,19.5-19.2,19.5S15.2,35.8,15.2,25C15.2,14.2,23.8,5.5,34.4,5.5z
	"/>
<path class="eclise20" d="M36.7,5.5c10.6,0,19.2,8.7,19.2,19.5c0,10.8-8.6,19.5-19.2,19.5S17.5,35.8,17.5,25C17.5,14.2,26.1,5.5,36.7,5.5
	z"/>
<path class="eclise" d="M25,0.5c13.5,0,24.5,11,24.5,24.5c0,13.5-11,24.5-24.5,24.5c-13.5,0-24.5-11-24.5-24.5
	C0.5,11.5,11.5,0.5,25,0.5z"/>
</svg>
