<?xml version="1.0" encoding="utf-8"?>
<!-- Generator: Adobe Illustrator 21.0.0, SVG Export Plug-In . SVG Version: 6.00 Build 0)  -->
<svg version="1.1" id="圖層_1" xmlns="http://www.w3.org/2000/svg" xmlns:xlink="http://www.w3.org/1999/xlink" x="0px" y="0px"
	 viewBox="0 0 283.5 98.1" style="enable-background:new 0 0 283.5 98.1;" xml:space="preserve">
<style type="text/css">
	.logo{clip-path:url(#logo2); fill: #fff}
</style>
<g>
	<defs>
		<rect id="logo_1" y="0" width="283.5" height="98.1"/>
	</defs>
	<clipPath id="logo2">
		<use xlink:href="#logo_1"  style="overflow:visible;"/>
	</clipPath>
	<path class="logo" d="M234.4,0c-11.7,0-22.5,4.1-30.9,11c-8.4-6.9-19.2-11-30.9-11c-11.7,0-22.5,4.1-30.9,11
		c-8.4-6.9-19.2-11-30.9-11C99.1,0,88.4,4.1,79.9,11C71.5,4.1,60.8,0,49,0C22,0,0,22,0,49s22,49,49,49c11.7,0,22.5-4.1,30.9-11
		c8.4,6.9,19.2,11,30.9,11c11.7,0,22.5-4.1,30.9-11c8.4,6.9,19.2,11,30.9,11c11.7,0,22.5-4.1,30.9-11c8.4,6.9,19.2,11,30.9,11
		c27.1,0,49-22,49-49S261.5,0,234.4,0 M203.5,71.1c-4.4-6.2-7.1-13.8-7.1-22s2.6-15.8,7.1-22c4.4,6.2,7.1,13.8,7.1,22
		S208,64.9,203.5,71.1 M141.7,71.1c-4.4-6.2-7.1-13.8-7.1-22s2.6-15.8,7.1-22c4.4,6.2,7.1,13.8,7.1,22S146.2,64.9,141.7,71.1
		 M79.9,71.1c-4.4-6.2-7.1-13.8-7.1-22s2.6-15.8,7.1-22c4.4,6.2,7.1,13.8,7.1,22S84.4,64.9,79.9,71.1 M11.1,49c0-21,17-38,38-38
		c8.7,0,16.7,2.9,23.1,7.8C65.7,27.2,61.8,37.7,61.8,49s3.9,21.8,10.3,30.1C65.7,84.1,57.7,87,49,87C28.1,87,11.1,70,11.1,49
		 M87.7,79.1c6.5-8.3,10.3-18.8,10.3-30.1s-3.9-21.8-10.3-30.1c6.4-4.9,14.4-7.8,23.1-7.8s16.7,2.9,23.1,7.8
		c-6.5,8.3-10.3,18.8-10.3,30.1s3.9,21.8,10.3,30.1c-6.4,4.9-14.4,7.8-23.1,7.8S94.1,84.1,87.7,79.1 M149.5,79.1
		c6.5-8.3,10.3-18.8,10.3-30.1s-3.9-21.8-10.3-30.1c6.4-4.9,14.4-7.8,23.1-7.8s16.7,2.9,23.1,7.8c-6.5,8.3-10.3,18.8-10.3,30.1
		s3.9,21.8,10.3,30.1c-6.4,4.9-14.4,7.8-23.1,7.8C163.9,87,155.9,84.1,149.5,79.1 M234.4,87c-8.7,0-16.7-2.9-23.1-7.8
		c6.5-8.3,10.3-18.8,10.3-30.1s-3.9-21.8-10.3-30.1c6.4-4.9,14.4-7.8,23.1-7.8c21,0,38,17,38,38S255.4,87,234.4,87"/>
</g>
</svg>
