<?xml version="1.0" encoding="utf-8"?>
<!-- Generator: Adobe Illustrator 21.0.0, SVG Export Plug-In . SVG Version: 6.00 Build 0)  -->
<svg version="1.1" id="圖層_1" xmlns="http://www.w3.org/2000/svg" xmlns:xlink="http://www.w3.org/1999/xlink" x="0px" y="0px"
	 viewBox="0 0 52.3 35.3" style="enable-background:new 0 0 52.3 35.3;" xml:space="preserve">
<style type="text/css">
	.st0{fill:#FFFFFF;}
</style>
<g>
	<path class="st0" d="M0,6.9C3.8,4.6,7.6,2.3,11.4,0v5.9H9.1V4.4C7.6,5.2,6.1,6,4.6,6.9C6.1,7.7,7.6,8.5,9,9.3V7.9h2.3v5.9
		C7.6,11.5,3.8,9.2,0,6.9"/>
</g>
<g>
	<path class="st0" d="M42.9,18.8H27.6v-1h15.3c7,0,8.4-2.2,8.4-5.9c0-3.3-2.4-4.6-8.4-4.6H12.4v-1h30.5c4.6,0,9.4,0.7,9.4,5.6
		C52.3,16.8,49.6,18.8,42.9,18.8z"/>
</g>
<g>
	<path class="st0" d="M2.2,32V22h4.8c0.7,0,1.3,0.1,1.8,0.2c0.5,0.1,0.9,0.3,1.2,0.5c0.3,0.2,0.5,0.5,0.7,0.9
		c0.1,0.3,0.2,0.7,0.2,1.2c0,0.3,0,0.5-0.1,0.7c-0.1,0.2-0.2,0.4-0.3,0.6c-0.1,0.2-0.3,0.3-0.4,0.4c-0.2,0.1-0.4,0.2-0.6,0.3
		c0.3,0.1,0.6,0.2,0.9,0.4s0.5,0.3,0.6,0.5c0.2,0.2,0.3,0.4,0.4,0.7c0.1,0.2,0.1,0.5,0.1,0.8c0,0.3,0,0.5-0.1,0.8s-0.2,0.5-0.3,0.7
		c-0.1,0.2-0.3,0.4-0.5,0.6c-0.2,0.2-0.5,0.3-0.8,0.4s-0.7,0.2-1.1,0.3S8,32,7.4,32H2.2z M6.9,26.1c0.3,0,0.6,0,0.8-0.1
		c0.2-0.1,0.4-0.1,0.6-0.3c0.2-0.1,0.3-0.3,0.4-0.4c0.1-0.2,0.1-0.3,0.1-0.5c0-0.2,0-0.4-0.1-0.5c-0.1-0.2-0.2-0.3-0.4-0.4
		c-0.2-0.1-0.4-0.2-0.6-0.3s-0.5-0.1-0.8-0.1H4.5v2.6H6.9z M7.4,30.4c0.4,0,0.7,0,0.9-0.1c0.3-0.1,0.5-0.1,0.6-0.3
		c0.2-0.1,0.3-0.3,0.3-0.4c0.1-0.2,0.1-0.4,0.1-0.6s0-0.4-0.1-0.6C9.2,28.3,9.1,28.2,9,28s-0.4-0.2-0.6-0.3
		c-0.3-0.1-0.6-0.1-0.9-0.1H4.5v2.8H7.4z"/>
	<path class="st0" d="M23.6,32l-1.1-2.1h-5.7L15.8,32h-2.5l5.3-10h2.3l5.2,10H23.6z M20.5,25.7c-0.1-0.3-0.3-0.5-0.4-0.8
		c-0.1-0.3-0.3-0.5-0.4-0.8c-0.1,0.3-0.3,0.5-0.4,0.8c-0.1,0.3-0.3,0.5-0.4,0.8l-1.2,2.5h4.1L20.5,25.7z"/>
	<path class="st0" d="M37.2,31.6c-0.3,0.1-0.5,0.2-0.8,0.3c-0.3,0.1-0.5,0.1-0.8,0.2c-0.3,0.1-0.6,0.1-1,0.1c-0.4,0-0.8,0-1.2,0
		c-0.7,0-1.3-0.1-1.8-0.2c-0.5-0.1-1-0.3-1.4-0.5c-0.4-0.2-0.8-0.5-1.1-0.8c-0.3-0.3-0.6-0.7-0.8-1.1s-0.3-0.8-0.4-1.2
		c-0.1-0.4-0.1-0.9-0.1-1.4c0-0.5,0.1-0.9,0.2-1.4c0.1-0.4,0.3-0.9,0.5-1.2s0.5-0.7,0.8-1.1c0.3-0.3,0.7-0.6,1.1-0.8
		c0.4-0.2,0.9-0.4,1.4-0.5c0.5-0.1,1.1-0.2,1.8-0.2c0.4,0,0.8,0,1.1,0.1s0.7,0.1,1,0.2c0.3,0.1,0.6,0.1,0.9,0.2
		c0.3,0.1,0.5,0.2,0.7,0.3v1.8c-0.2-0.1-0.4-0.2-0.7-0.3s-0.5-0.2-0.8-0.2c-0.3-0.1-0.6-0.1-1-0.2c-0.3,0-0.7-0.1-1.1-0.1
		c-0.4,0-0.8,0-1.1,0.1c-0.3,0.1-0.6,0.2-0.9,0.3s-0.5,0.3-0.7,0.5s-0.4,0.4-0.5,0.7s-0.2,0.5-0.3,0.8C30,26.4,30,26.7,30,27
		c0,0.3,0,0.6,0.1,0.9c0.1,0.3,0.1,0.6,0.3,0.8c0.1,0.3,0.3,0.5,0.5,0.7c0.2,0.2,0.4,0.4,0.7,0.6s0.6,0.3,0.9,0.4
		c0.3,0.1,0.7,0.1,1.1,0.1c0.3,0,0.6,0,0.9,0c0.3,0,0.6-0.1,1-0.1s0.6-0.1,0.9-0.2c0.3-0.1,0.6-0.2,0.9-0.3V31.6z"/>
	<path class="st0" d="M47.6,32l-5.1-4.4V32h-2.2V22h2.2v4.3l5.2-4.3h3l-4.8,3.9c-0.2,0.2-0.4,0.3-0.6,0.5s-0.4,0.3-0.6,0.5
		c0.1,0.1,0.2,0.2,0.3,0.3c0.1,0.1,0.2,0.2,0.3,0.3c0.1,0.1,0.2,0.2,0.3,0.3c0.1,0.1,0.2,0.2,0.3,0.3l4.9,4.1H47.6z"/>
</g>
</svg>
