<?xml version="1.0" encoding="utf-8"?>
<!-- Generator: Adobe Illustrator 21.0.0, SVG Export Plug-In . SVG Version: 6.00 Build 0)  -->
<svg version="1.1" id="圖層_1" xmlns="http://www.w3.org/2000/svg" xmlns:xlink="http://www.w3.org/1999/xlink" x="0px" y="0px"
	 viewBox="0 0 24 16" style="enable-background:new 0 0 24 16;" xml:space="preserve">
<style type="text/css">
	.st0{clip-path:url(#SVGID_2_);}
</style>
<g>
	<defs>
		<rect id="SVGID_1_" width="24" height="16"/>
	</defs>
	<clipPath id="SVGID_2_">
		<use xlink:href="#SVGID_1_"  style="overflow:visible;"/>
	</clipPath>
	<path class="st0" d="M23.1,5.2l-1.4-1c0,0-0.1-0.1-0.2-0.2H23V3h-2.2c-0.2-0.3-0.4-0.7-0.6-1.2C19.4,0,17.7,0,17.6,0H6.4
		C6.3,0,4.6,0,3.8,1.8C3.6,2.2,3.4,2.6,3.2,3H1v1h1.5C2.4,4.1,2.4,4.1,2.4,4.1L1,5.2C0.6,5.4,0,6.2,0,9.8v4.8C0,15.3,0.7,16,1.6,16
		H5v-2h14v2h3.4c0.8,0,1.6-0.7,1.6-1.5V9.8C24,6.2,23.4,5.4,23.1,5.2 M23,8.6c-0.4,0.1-1.1,0.3-2.1,0.5c-0.3,0.1-0.5,0.1-0.6,0.1
		c0-0.1,0.1-0.2,0.1-0.4l0.1-0.4c0.1-0.6,0.3-0.8,1.1-1c0.5-0.2,1-0.3,1.3-0.4C22.9,7.5,22.9,8,23,8.6 M4.7,2.2C5.2,1,6.3,1,6.4,1
		h11.2c0,0,1.1,0,1.7,1.2C19.6,3,20,3.6,20.3,4H3.7C4,3.6,4.3,3,4.7,2.2 M1.2,7.1C1.5,7.2,2,7.3,2.5,7.4c0.8,0.2,1,0.4,1.1,1
		l0.1,0.4c0,0.1,0.1,0.3,0.1,0.4c-0.1,0-0.3,0-0.7-0.1C2.2,8.9,1.4,8.7,1,8.6C1.1,8,1.1,7.5,1.2,7.1 M23,14.5c0,0.3-0.3,0.5-0.6,0.5
		H20v-2H4v2H1.6C1.3,15,1,14.8,1,14.5V9.8c0,0,0-0.1,0-0.1c0.4,0.1,1.1,0.3,2,0.4c0.3,0.1,0.6,0.1,0.9,0.1c0.3,0,0.6-0.1,0.8-0.3
		c0.3-0.3,0.2-0.8,0.1-1.3L4.6,8.2C4.4,7.1,3.8,6.8,2.8,6.5c-0.5-0.2-1-0.3-1.4-0.4C1.5,6,1.5,6,1.5,6l1.3-1h18.3l1.3,1
		c0,0,0,0,0.1,0.1c-0.3,0.1-0.8,0.2-1.4,0.4c-1,0.3-1.6,0.6-1.8,1.7l-0.1,0.4c-0.1,0.5-0.2,1,0.1,1.3c0.2,0.2,0.4,0.3,0.8,0.3
		c0.2,0,0.5,0,0.9-0.1c0.9-0.2,1.5-0.3,2-0.4c0,0,0,0.1,0,0.1V14.5z"/>
	<path class="st0" d="M8,8L5.9,9.4l2,2.6h8.3l1.9-2.6l-2-1.4H8z M15.7,11H8.4L7.3,9.6l1-0.6h7.4l0.9,0.6L15.7,11z"/>
</g>
</svg>
